<svg xmlns="http://www.w3.org/2000/svg" fill="none" viewBox="0 0 28 28" height="28" width="28" id="Facebook-Logo-2--Streamline-Logos.svg"><desc>Facebook Logo 2 Streamline Icon: https://streamlinehq.com</desc><path fill="#ffffff" d="M15.750000000000002 1.1666666666666667A5.25 5.25 0 0 0 10.5 6.416666666666667V10.5H7.583333333333334a0.5833333333333334 0.5833333333333334 0 0 0 -0.5833333333333334 0.5833333333333334v4.666666666666667a0.5833333333333334 0.5833333333333334 0 0 0 0.5833333333333334 0.5833333333333334H10.5v9.916666666666668a0.5833333333333334 0.5833333333333334 0 0 0 0.5833333333333334 0.5833333333333334h4.666666666666667a0.5833333333333334 0.5833333333333334 0 0 0 0.5833333333333334 -0.5833333333333334V16.333333333333336h2.916666666666667a0.5833333333333334 0.5833333333333334 0 0 0 0.5658333333333333 -0.4421666666666667l1.1666666666666667 -4.666666666666667A0.5833333333333334 0.5833333333333334 0 0 0 20.416666666666668 10.5H16.333333333333336V8.75A1.75 1.75 0 0 1 18.083333333333336 7h2.3333333333333335a0.5833333333333334 0.5833333333333334 0 0 0 0.5833333333333334 -0.5833333333333334v-4.666666666666667a0.5833333333333334 0.5833333333333334 0 0 0 -0.5833333333333334 -0.5833333333333334h-4.666666666666667Z" stroke-width="1"></path></svg>