<svg xmlns="http://www.w3.org/2000/svg" fill="none" viewBox="0 0 28 28" height="28" width="28" id="Instagram--Streamline-Core.svg"><desc>Instagram Streamline Icon: https://streamlinehq.com</desc><g id="Instagram--Streamline-Core.svg"><path id="Subtract" fill="#ffffff" fill-rule="evenodd" d="M6.16 0.28C2.9126 0.28 0.28 2.9126 0.28 6.16V21.84C0.28 25.0874 2.9126 27.72 6.16 27.72H21.8402C25.0874 27.72 27.72 25.0874 27.72 21.84V6.16C27.72 2.9126 25.0874 0.28 21.8402 0.28H6.16ZM23.5326 6.1686C23.5326 7.104 22.7744 7.8622 21.839 7.8622C20.9036 7.8622 20.1452 7.104 20.1452 6.1686C20.1452 5.233 20.9036 4.4748 21.839 4.4748C22.7744 4.4748 23.5326 5.233 23.5326 6.1686ZM14.0004 9.3026C11.406 9.3026 9.303 11.4056 9.303 13.9998S11.406 18.6972 14.0004 18.6972S18.6976 16.594 18.6976 13.9998S16.5946 9.3026 14.0004 9.3026ZM7.0448 13.9998C7.0448 10.1584 10.1588 7.0442 14.0004 7.0442S20.9558 10.1584 20.9558 13.9998S17.8418 20.9554 14.0004 20.9554S7.0448 17.8412 7.0448 13.9998Z" clip-rule="evenodd" stroke-width="1"></path></g></svg>