<svg xmlns="http://www.w3.org/2000/svg" fill="none" viewBox="0 0 9 9" height="9" width="9" id="User-Multiple-Group--Streamline-Core.svg"><desc>User Multiple Group Streamline Icon: https://streamlinehq.com</desc><g id="User-Multiple-Group--Streamline-Core.svg"><path id="Union" fill="#000" fill-rule="evenodd" d="M5.129935714285715 2.4525C5.129935714285715 3.496307142857143 4.283807142857143 4.3425 3.24 4.3425S1.35 3.496307142857143 1.35 2.4525S2.1961928571428575 0.5625642857142857 3.24 0.5625642857142857S5.129935714285715 1.4086928571428572 5.129935714285715 2.4525ZM3.24 4.9725C1.5003000000000002 4.9725 0.09000000000000001 6.382800000000001 0.09000000000000001 8.122435714285714C0.09000000000000001 8.296392857142857 0.23104285714285716 8.437435714285716 0.405 8.437435714285716H6.074935714285714C6.248957142857143 8.437435714285716 6.3899357142857145 8.296392857142857 6.3899357142857145 8.122435714285714C6.3899357142857145 6.382800000000001 4.9797 4.9725 3.24 4.9725ZM8.595 8.437435714285716H7.131857142857143C7.161557142857143 8.337664285714286 7.1775 8.231914285714286 7.1775 8.122435714285714C7.1775 6.836592857142858 6.561128571428572 5.694685714285715 5.6077071428571434 4.9761C5.658171428571429 4.973721428571429 5.708957142857143 4.9725 5.760000000000001 4.9725C7.499700000000001 4.9725 8.91 6.382800000000001 8.91 8.122435714285714C8.91 8.296392857142857 8.768957142857143 8.437435714285716 8.595 8.437435714285716ZM5.760000000000001 4.3425C5.569907142857144 4.3425 5.386371428571429 4.314471428571429 5.2133142857142865 4.262207142857143C5.6505857142857145 3.785657142857143 5.9175 3.1502571428571433 5.9175 2.4525S5.6505857142857145 1.1193428571428572 5.2133142857142865 0.6427928571428572C5.386371428571429 0.5905928571428571 5.569907142857144 0.5625642857142857 5.760000000000001 0.5625642857142857C6.803807142857144 0.5625642857142857 7.65 1.4086928571428572 7.65 2.4525S6.803807142857144 4.3425 5.760000000000001 4.3425Z" clip-rule="evenodd" stroke-width="1"></path></g></svg>