<svg xmlns="http://www.w3.org/2000/svg" fill="none" viewBox="0 0 28 28" height="28" width="28" id="Whatsapp-Logo--Streamline-Logos.svg"><desc>Whatsapp Logo Streamline Icon: https://streamlinehq.com</desc><path fill="#ffffff" fill-rule="evenodd" d="M1.1666666666666667 14C1.1666666666666667 6.9125000000000005 6.9125000000000005 1.1666666666666667 14 1.1666666666666667s12.833333333333334 5.745833333333334 12.833333333333334 12.833333333333334 -5.745833333333334 12.833333333333334 -12.833333333333334 12.833333333333334c-2.2586666666666666 0 -4.383166666666667 -0.5833333333333334 -6.227666666666667 -1.6099999999999999L1.6333333333333333 26.36666666666667l1.1433333333333333 -6.139A12.777333333333335 12.777333333333335 0 0 1 1.1666666666666667 14Zm7.171500000000001 -6.245166666666667c0.7630000000000001 -0.7641666666666668 1.7815 -0.8318333333333333 2.331 -0.8049999999999999 0.5075000000000001 0.023333333333333334 0.9053333333333334 0.31733333333333336 1.1480000000000001 0.658l1.1106666666666667 1.5563333333333336a1.75 1.75 0 0 1 -0.18666666666666668 2.254l-0.7863333333333334 0.7851666666666668c0.2601666666666667 0.6346666666666667 0.7816666666666667 1.6566666666666667 1.4840000000000002 2.3578333333333332s1.723166666666667 1.225 2.356666666666667 1.4851666666666667l0.7875000000000001 -0.7863333333333334a1.75 1.75 0 0 1 2.2528333333333337 -0.18666666666666668l1.5575 1.1095c0.3395 0.24383333333333335 0.6346666666666667 0.6416666666666667 0.658 1.1480000000000001 0.025666666666666667 0.5495 -0.042 1.5680000000000003 -0.8049999999999999 2.3321666666666667 -1.2448333333333335 1.243666666666667 -3.1978333333333335 1.2565 -4.974666666666668 0.7688333333333334 -1.8083333333333336 -0.497 -3.651666666666667 -1.5633333333333335 -4.8965000000000005 -2.8070000000000004 -1.2425 -1.243666666666667 -2.31 -3.087 -2.8070000000000004 -4.8965000000000005 -0.4876666666666667 -1.7768333333333333 -0.47483333333333333 -3.7298333333333336 0.7700000000000001 -4.9735000000000005Z" clip-rule="evenodd" stroke-width="1"></path></svg>